<svg width="599" height="162" viewBox="0 0 599 162" fill="none" xmlns="http://www.w3.org/2000/svg">
<path d="M33.9814 66.7432C31.7452 100.289 55.7025 129.196 87.8496 134.226C76.756 144.028 62.176 150 46.0136 150H31.7871C30.2344 150 28.7022 150.361 27.3134 151.056L7.23728 161.097C3.78149 162.825 -0.245205 160.147 0.0116891 156.292L6.49606 59.002C7.02137 51.1227 13.5647 45.0002 21.4599 45H35.4306L33.9814 66.7432Z" fill="#EE4D2D"/>
<path d="M118.065 25C125.962 25 132.506 31.1226 133.032 39.002L138.72 124.335C139.105 130.107 134.527 135 128.743 135H97.8393C95.6752 135 93.5377 134.892 91.4311 134.683C69.6649 129.19 69.21 113.581 69.3794 99.998C69.4138 97.2368 67.1797 95.0382 64.436 94.7256C42.5615 92.233 33.5681 72.9594 35.4321 45L35.4302 44.999L35.8305 39.002C36.356 31.1227 42.9006 25.0001 50.7973 25H118.065Z" fill="#42B549"/>
<path d="M69.4316 45V25C69.4316 16.7157 76.1474 10 84.4316 10C92.7159 10 99.4316 16.7157 99.4316 25V45C99.4316 47.7614 101.67 50 104.432 50C107.193 50 109.432 47.7614 109.432 45V25C109.432 11.1929 98.2388 0 84.4316 0C70.6245 0 59.4316 11.1929 59.4316 25V45C59.4316 47.7614 61.6702 50 64.4316 50C67.1931 50 69.4316 47.7614 69.4316 45Z" fill="#2B4436"/>
<path d="M525.271 52.2851H545.805V64.6353C546.859 62.0498 548.39 59.6561 550.401 57.4551C552.507 55.2532 555.235 53.4815 558.586 52.1411C562.033 50.7052 566.245 49.9878 571.223 49.9878C576.393 49.9878 580.988 51.0401 585.009 53.1466C589.03 55.2532 592.189 58.7469 594.487 63.6297C596.784 68.4162 597.934 74.9266 597.934 83.1601V132.703H577.398V85.0262C577.398 81.8673 577.158 78.9947 576.68 76.4102C576.201 73.7293 575.1 71.6237 573.377 70.0915C571.75 68.5603 569.117 67.7942 565.479 67.7942C562.607 67.7942 559.639 68.608 556.576 70.2356C553.512 71.8632 550.927 74.5431 548.821 78.2773C546.811 81.915 545.805 86.941 545.805 93.355V132.703H525.271V52.2851Z" fill="#2B4436"/>
<path d="M464.668 135C454.042 135 444.995 132.655 437.528 127.964C430.156 123.176 424.555 116.81 420.726 108.864C416.896 100.918 414.981 92.063 414.981 82.2973C414.981 75.1171 416.035 68.3682 418.141 62.0495C420.343 55.6355 423.55 50.0352 427.762 45.2478C431.975 40.4613 437.144 36.7271 443.272 34.0472C449.494 31.271 456.627 29.8828 464.668 29.8828C472.615 29.8828 479.651 31.271 485.778 34.0472C492.001 36.7271 497.219 40.4613 501.431 45.2478C505.643 50.0352 508.803 55.6355 510.908 62.0495C513.11 68.3682 514.211 75.1171 514.211 82.2973C514.211 92.063 512.296 100.918 508.467 108.864C504.638 116.81 499.037 123.176 491.666 127.964C484.294 132.655 475.295 135 464.668 135ZM464.668 116.044C471.179 116.044 476.492 114.417 480.609 111.162C484.725 107.907 487.74 103.742 489.655 98.6688C491.57 93.4988 492.527 88.0416 492.527 82.2973C492.527 76.6494 491.57 71.2886 489.655 66.214C487.74 61.0449 484.725 56.8795 480.609 53.7207C476.492 50.4655 471.179 48.8379 464.668 48.8379C458.158 48.8379 452.797 50.4655 448.585 53.7207C444.468 56.8795 441.453 61.0449 439.538 66.214C437.623 71.2886 436.666 76.6494 436.666 82.2973C436.666 88.0416 437.623 93.4988 439.538 98.6688C441.453 103.742 444.468 107.907 448.585 111.162C452.797 114.417 458.158 116.044 464.668 116.044Z" fill="#2B4436"/>
<path d="M403.61 25H383.075V132.703H403.61V25Z" fill="#2B4436"/>
<path d="M369.252 25H348.717V132.703H369.252V25Z" fill="#2B4436"/>
<path d="M300.8 135C292.567 135 285.339 133.23 279.116 129.687C272.989 126.049 268.202 121.022 264.755 114.608C261.405 108.194 259.729 100.87 259.729 92.6376C259.729 84.3078 261.405 76.9368 264.755 70.5227C268.202 64.1077 272.989 59.0818 279.116 55.444C285.339 51.8062 292.567 49.9868 300.8 49.9868C306.257 49.9868 311.427 51.0878 316.309 53.2897C321.191 55.4917 325.404 58.6992 328.946 62.9113C332.488 67.1234 335.074 72.2934 336.7 78.4203C338.328 84.5472 338.567 91.5366 337.419 99.3865H271.361V82.7288H323.49L316.884 86.6061C317.362 83.8298 317.075 81.0535 316.022 78.2773C315.064 75.4046 313.341 73.0596 310.852 71.2402C308.363 69.3254 305.012 68.3685 300.8 68.3685C295.918 68.3685 291.993 69.4695 289.025 71.6714C286.056 73.777 283.902 76.6973 282.563 80.4305C281.318 84.0693 280.696 88.1373 280.696 92.6376C280.696 97.0415 281.318 101.062 282.563 104.7C283.902 108.337 286.056 111.258 289.025 113.46C291.993 115.566 295.918 116.619 300.8 116.619C304.725 116.619 307.98 115.709 310.565 113.891C313.15 112.072 314.969 109.822 316.022 107.141H337.706C336.557 112.694 334.308 117.576 330.957 121.789C327.605 125.905 323.345 129.161 318.175 131.553C313.102 133.852 307.31 135 300.8 135Z" fill="#2B4436"/>
<path d="M192.402 100.679C192.786 103.838 193.887 106.566 195.705 108.864C197.525 111.162 199.871 112.933 202.742 114.178C205.71 115.422 209.013 116.044 212.651 116.044C217.533 116.044 221.65 115.231 225 113.604C228.352 111.88 230.027 109.2 230.027 105.562C230.027 102.976 228.974 100.918 226.867 99.3862C224.762 97.855 221.937 96.61 218.396 95.6531C214.949 94.6952 211.167 93.7383 207.05 92.7804C202.934 91.8235 198.77 90.6748 194.557 89.3344C190.44 87.8985 186.611 85.9838 183.069 83.5901C179.622 81.1963 176.846 78.0852 174.74 74.2556C172.634 70.3307 171.58 65.4001 171.58 59.465C171.58 53.7207 173.256 48.6471 176.606 44.2432C180.053 39.7429 184.744 36.2492 190.679 33.7601C196.711 31.1746 203.556 29.8828 211.215 29.8828C218.683 29.8828 225.336 31.3664 231.176 34.3344C237.016 37.3025 241.611 41.3705 244.962 46.5405C248.408 51.7105 250.131 57.5502 250.131 64.0597H228.303C227.921 59.2732 226.245 55.5401 223.277 52.8592C220.406 50.1783 216.145 48.8379 210.497 48.8379C204.944 48.8379 200.684 49.8434 197.717 51.8536C194.748 53.8638 193.265 56.4016 193.265 59.465C193.265 62.3367 194.317 64.5863 196.424 66.214C198.53 67.8416 201.307 69.182 204.753 70.2353C208.295 71.2886 212.125 72.2932 216.241 73.251C220.453 74.1125 224.618 75.2135 228.735 76.554C232.851 77.8944 236.633 79.7128 240.079 82.0101C243.622 84.3085 246.446 87.3719 248.552 91.2015C250.658 94.9347 251.711 99.7211 251.711 105.562C251.711 114.848 248.216 122.075 241.228 127.245C234.239 132.415 224.426 135 211.79 135C204.035 135 197.093 133.516 190.967 130.548C184.84 127.58 179.957 123.511 176.319 118.342C172.681 113.172 170.719 107.285 170.432 100.679H192.402Z" fill="#2B4436"/>
</svg>
